<?xml version="1.0" encoding="utf-8"?>
<!-- Generator: Adobe Illustrator 23.0.3, SVG Export Plug-In . SVG Version: 6.00 Build 0)  -->
<svg version="1.1" id="レイヤー_1" xmlns="http://www.w3.org/2000/svg" xmlns:xlink="http://www.w3.org/1999/xlink" x="0px"
	 y="0px" viewBox="0 0 1280 720" style="enable-background:new 0 0 1280 720;" xml:space="preserve">
<style type="text/css">
	.st0{fill:none;stroke:#231815;}
</style>
<path class="st0" d="M1267.5,233.6l-72.7-61.4c-19.1-15.4-38.6-34.9-62.7-27.8c-24.1,7.1-37,35.3-37,35.3L937,300.5
	c-34.9,21.6-38.2,41.5-37.8,47.3c2.3,36.9,9.2,30.3-39.8,54.8c-24,12-41.9,22.8-53.6,14.1c-11.6-8.7-10.8-24.9-2.9-44
	c7.9-19.1,13.3-53.1,17.9-62.7c10.9-22.8,28.6-73.5,40.3-81.4c9.5-6.4,54-5.8,62.7-9.1c8.7-3.3,65.2-5,65.2-5
	c32,3.3,51.5-8.7,59-14.9l80.1-66l-72.7-83.5c-10.8-12.9-26.6-17.4-34-17.4H579.1c-18.7,6.6-101.3,6.6-108.8,7.9
	c-23.9,4-161.9-0.4-177.7-0.4c-15.8,0-91.3-7.1-109.2-4.2c-17.9,2.9-68.5,6.6-117.5,44.8c-51.3,40-63.5,97.6-64.8,106.3
	c-2.7,18.9-2.9,50.2,23.7,97.6c34.1,60.7,95.5,66,103,66.4c51.5,2.9,122.9-38.2,140.3-43.6l120.8-39c29.9-8.3,39.3,3.9,39.3,3.9
	l80.8,67.5c22.7,18.8,1.1,49.8,1.1,49.8l-68.1,129.5c-23.8,37.6-17.2,59.2-8.3,81.9c21.8,55.8,112.4,23.8,123.7,20.2l126.2-44
	l345.9-153.6c12-4.6,108-34,130-39.9c22-5.8,79.3-34,89.3-39.9c6.1-3.6,27.8-25.7,30.7-55.6C1283,251.9,1267.5,233.6,1267.5,233.6z
	 M400.2,54.2h538.5l-0.5,3c0,0-2.8,0.4-2.9,2.6c-0.1,2.7,2,2.7,2,2.7l-1.9,11.2h63.1c5.5,1.1,12.7,5,13.8,14.4l5.5,58.7
	c0,0-0.6,23.3-28.8,27.7c-25.9,4.1-124,5-128.4-6.1l-1.4-2.2c-11.3,0-50,8.2-60.9,38.5c-6.6,18.3-32.6,128.8-37.6,160.4
	c-3.8,23.7-6.3,34.1-3.6,60.2c1.1,10.7,12.4,29.7,42.6,37.6c10.5,2.8,31-2.8,31-2.8l85.2-39.9c0,0,24.9-11.1,23.4-48.2
	c-1.2-29.3-7.4-30.4,9.2-45.9l154.4-121.2c0,0,38.8-22.7,72,1.1l35.4,26.6c0,0,47.1,39.3-5,77.5l-102.4,57L677.9,555.8
	c0,0-93.3,20.2-111.8,18.8c-13.3-1-44.3-7.8-41.5-54.3c2.8-46.5,6.6-80.3,6.6-80.3s29.9-69.8,18.8-103.3
	c-3.7-11.3-19.9-28.2-19.9-28.2l-74.2-72.2c0,0-19.4-22-55.9-19.9c-31.8,1.8-87.5,42.5-87.5,42.5l-140.3,54.4
	c-11.6,3.3-53.6,12.9-87.6-10.8c-34-23.7-49-55.2-49.8-85.5l25.3-0.8c0,0,24.9-4.2,24.5-22.4c-0.4-18.3-18.5-32.2-28.2-39.4
	c-6.6-5,2.7-25.1,7.5-29.9c6.2-6.2,39.1-51.3,112.1-61c12.5-1.7,51.5-2.5,51.5-2.5h142.4L400.2,54.2z"/>
</svg>
